# xmcd
#
# Track frame offsets:
# 150
# 19282
# 34095
# 53060
# 70350
# 87915
# 108812
# 121572
# 142967
# 167565
# 189475
# 212555
# 236020
#
# Disc length: 3562 seconds
#
# Revision: 0
# Processed by: cddbd v1.4PL0 Copyright (c) Steve Scherf et al.
# Submitted via: MacMP3 Pro 5.0 (http://mp3.act2.co.jp/)
#
DISCID=a60de80d
DTITLE=็rเ?โpเอ - ษIษIษJษ~้ฮวห
DYEAR=1900
DGENRE=
TTITLE0=วฑวงวรว?วห
TTITLE1=๋ยํnวรโS
TTITLE2=๑>=๑บ๊ฬ้mวร๏ส
TTITLE3=ษIษIษJษ~้ฮวห
TTITLE4=๊ทว...่๋ว!=๓^๏?
TTITLE5=ษโลEษmษ่ษCษG
TTITLE6=เงว(TM)วฑว/วอวศ
TTITLE7=๑ศวร้์้!=
TTITLE8=๊lวรใCว?ํmวมวปวขว?
TTITLE9=ใษว!=๓Fว?ๅฉวศ
TTITLE10=ษAษฤษXษeษใษ_ษฤ
TTITLE11=ษGษfษ์ษuษใล[ษX
TTITLE12=้ัวรๅซ์?
EXTD=
EXTT0=
EXTT1=
EXTT2=
EXTT3=
EXTT4=
EXTT5=
EXTT6=
EXTT7=
EXTT8=
EXTT9=
EXTT10=
EXTT11=
EXTT12=
PLAYORDER=
